# xmcd CD Database Entry
#
# Track frame offsets:
# 187
# 16565
# 35495
# 51257
# 66210
# 78762
# 92327
# 103882
# 117365
#
# Disc length: 1739 seconds
#
# Revision: 32
# Processed by: cddbd v1.4PL0 Copyright (c) Steve Scherf et al.
# Submitted via: tcd 2.0b
#
DISCID=6506c909
DTITLE=Waylon Jennings - Greatest Hits
DYEAR=1900
DGENRE=
TTITLE0=Lonesome, On'ry And Mean
TTITLE1=I've Always Been Crazy
TTITLE2=Honky Tonk Heroes
TTITLE3=Luckenbach, Texas 
TTITLE4=I'm A Ramblin' Man
TTITLE5=Amanda
TTITLE6=Mammas Don't Let Your Babies Grow Up To Be Cowboys
TTITLE7=A Good Hearted Woman
TTITLE8=Are You Sure Hank Done It This Way 
EXTD=
EXTT0=
EXTT1=
EXTT2=
EXTT3=
EXTT4=
EXTT5=
EXTT6=
EXTT7=
EXTT8=
PLAYORDER=
